<svg id="visual" viewBox="0 0 900 150" width="900" height="150" xmlns="http://www.w3.org/2000/svg" xmlns:xlink="http://www.w3.org/1999/xlink" version="1.1"><rect x="0" y="0" width="900" height="150" fill="#002233"></rect><path d="M0 90L37.5 97.7C75 105.3 150 120.7 225 122.8C300 125 375 114 450 105.5C525 97 600 91 675 93.2C750 95.3 825 105.7 862.5 110.8L900 116L900 151L862.5 151C825 151 750 151 675 151C600 151 525 151 450 151C375 151 300 151 225 151C150 151 75 151 37.5 151L0 151Z" fill="#eef4fd" stroke-linecap="round" stroke-linejoin="miter"></path></svg>