<svg id="visual" viewBox="0 0 900 600" width="900" height="600" xmlns="http://www.w3.org/2000/svg" xmlns:xlink="http://www.w3.org/1999/xlink" version="1.1"><rect x="0" y="0" width="900" height="600" fill="#002233"></rect><path d="M0 432L21.5 438C43 444 86 456 128.8 460C171.7 464 214.3 460 257.2 456C300 452 343 448 385.8 441.7C428.7 435.3 471.3 426.7 514.2 436.5C557 446.3 600 474.7 642.8 484.5C685.7 494.3 728.3 485.7 771.2 475.3C814 465 857 453 878.5 447L900 441L900 601L878.5 601C857 601 814 601 771.2 601C728.3 601 685.7 601 642.8 601C600 601 557 601 514.2 601C471.3 601 428.7 601 385.8 601C343 601 300 601 257.2 601C214.3 601 171.7 601 128.8 601C86 601 43 601 21.5 601L0 601Z" fill="#FFFFFF" stroke-linecap="round" stroke-linejoin="miter"></path></svg>